<svg xmlns="http://www.w3.org/2000/svg" version="1.1" width="121.4" height="85">
  <path d="M118.9 13.3c-1.4-5.2-5.5-9.3-10.7-10.7C98.7 0 60.7 0 60.7 0s-38 0-47.5 2.5C8.1 3.9 3.9 8.1 2.5 13.3 0 22.8 0 42.5 0 42.5s0 19.8 2.5 29.2C3.9 76.9 8 81 13.2 82.4 22.8 85 60.7 85 60.7 85s38 0 47.5-2.5c5.2-1.4 9.3-5.5 10.7-10.7 2.5-9.5 2.5-29.2 2.5-29.2s.1-19.8-2.5-29.3z" id="path7" style="fill:red"/>
  <path id="polygon9" style="fill:#fff" d="M80.2 42.5 48.6 24.3v36.4z"/>
  <text x="50%" y="78" text-anchor="middle" fill="white" font-family="Roboto,sans-serif" font-size="12" font-weight="bold">Video tutorial</text>
</svg>
