<svg width="96" height="96" xmlns="http://www.w3.org/2000/svg" xmlns:xlink="http://www.w3.org/1999/xlink" overflow="hidden"><defs><clipPath id="clip0"><rect x="739" y="303" width="96" height="96"/></clipPath></defs><g clip-path="url(#clip0)" transform="translate(-739 -303)"><path d="M824.128 350.792 824.113 350.792C823.429 350.798 822.555 350.82 821.53 350.874L821.16 346.916C821.16 346.916 820.791 346.889 820.103 346.889 819.411 346.889 818.373 346.925 817.087 347.035L816.515 340.41C815.246 340.22 813.964 340.133 812.681 340.149 803.041 340.165 793.831 344.142 787.209 351.149L786.791 351.149C780.17 344.143 770.96 340.165 761.319 340.149 760.036 340.133 758.754 340.22 757.485 340.41L756.914 347.035C755.627 346.925 754.589 346.889 753.898 346.889 753.21 346.889 752.841 346.916 752.841 346.916L752.471 350.873C751.446 350.819 750.572 350.797 749.888 350.792L749.873 350.792C748.889 350.792 748.068 351.541 747.977 352.52L745.103 383.557C745.002 384.606 745.771 385.538 746.819 385.638 746.879 385.644 746.94 385.647 747 385.647 747.021 385.647 747.042 385.647 747.062 385.646 747.642 385.628 748.325 385.615 749.101 385.615 756.102 385.615 770.565 386.682 782.539 394.505 783.166 394.921 783.901 395.145 784.653 395.15L789.398 395.15C790.12 395.146 790.826 394.939 791.437 394.554 804.062 386.687 818.253 385.615 825.05 385.615 825.763 385.615 826.395 385.627 826.935 385.644L826.989 385.645C828.045 385.647 828.904 384.793 828.906 383.737 828.906 383.676 828.903 383.615 828.898 383.555L826.023 352.52C825.932 351.541 825.111 350.792 824.128 350.792ZM783.632 392.83C771.358 384.812 756.729 383.615 749.101 383.615 748.42 383.615 747.749 383.625 747.103 383.644L749.961 352.793C750.563 352.799 751.349 352.819 752.283 352.868L749.607 381.459C749.607 381.459 749.93 381.443 750.527 381.443 754.434 381.443 770.077 382.148 783.673 392.763 783.767 392.836 783.967 392.963 783.954 392.984 783.839 392.952 783.729 392.9 783.632 392.83ZM785.984 392.055C772.895 381.248 757.788 379.643 751.803 379.462L754.664 348.9C755.231 348.915 755.933 348.953 756.742 349.022L754.376 376.445C754.376 376.445 772.835 378.689 786 391.769L786 392.047C786 392.059 785.993 392.062 785.984 392.055ZM785.984 389.006C775.062 378.999 761.499 375.681 756.529 374.765L759.337 342.218C759.875 342.179 760.544 342.15 761.319 342.15 770.514 342.164 779.289 345.996 785.548 352.732L786 353.209 786 388.999C786 389.011 785.992 389.014 785.984 389.006ZM788 353.21 788.452 352.732C794.711 345.996 803.487 342.164 812.681 342.149 813.457 342.149 814.125 342.179 814.664 342.217L817.472 374.765C812.502 375.681 798.938 378.999 788.016 389.006 788.008 389.014 788 389.011 788 388.999ZM788 392.048 788 391.77C801.165 378.689 819.625 376.446 819.625 376.446L817.258 349.022C818.066 348.953 818.77 348.915 819.337 348.9L822.198 379.462C816.212 379.642 801.106 381.248 788.016 392.055 788.007 392.062 788 392.059 788 392.047ZM825.049 383.615C817.639 383.615 803.282 384.815 790.378 392.857 790.253 392.942 790.115 393.007 789.969 393.047 789.947 393.013 790.191 392.868 790.301 392.781 803.904 382.147 819.565 381.443 823.473 381.443 824.07 381.443 824.393 381.46 824.393 381.46L821.717 352.868C822.651 352.819 823.437 352.798 824.04 352.793L826.897 383.641C826.362 383.625 825.742 383.615 825.049 383.615Z"/><path d="M812.914 317.149C813.663 314.514 815.509 312.328 817.982 311.148 815.51 309.968 813.664 307.784 812.914 305.149 812.166 307.785 810.319 309.97 807.845 311.148 810.319 312.326 812.167 314.513 812.914 317.149ZM812.915 309.522C813.351 310.11 813.842 310.654 814.381 311.148 813.842 311.642 813.351 312.186 812.915 312.774 812.479 312.186 811.988 311.642 811.448 311.148 811.988 310.655 812.479 310.11 812.915 309.522Z"/><path d="M748.931 339.149C749.681 336.514 751.527 334.328 754 333.148 751.528 331.969 749.682 329.784 748.931 327.149 748.183 329.785 746.336 331.97 743.862 333.148 746.337 334.326 748.184 336.513 748.931 339.149ZM748.932 331.523C749.368 332.11 749.859 332.655 750.399 333.148 749.859 333.642 749.368 334.186 748.932 334.774 748.497 334.186 748.006 333.642 747.466 333.148 748.006 332.655 748.497 332.11 748.932 331.523Z"/><path d="M758.776 317.149C759.401 314.953 760.939 313.131 763 312.148 760.94 311.165 759.401 309.345 758.776 307.149 758.153 309.346 756.613 311.167 754.552 312.148 756.614 313.13 758.153 314.952 758.776 317.149ZM758.777 311.337C759.008 311.621 759.254 311.892 759.515 312.148 759.254 312.405 759.008 312.676 758.777 312.96 758.546 312.676 758.3 312.405 758.039 312.148 758.3 311.892 758.546 311.621 758.777 311.337Z"/><path d="M824.776 333.149C825.401 330.953 826.939 329.131 829 328.148 826.94 327.165 825.401 325.345 824.776 323.149 824.152 325.346 822.613 327.167 820.552 328.148 822.614 329.13 824.153 330.952 824.776 333.149ZM824.777 327.337C825.008 327.621 825.254 327.892 825.515 328.148 825.254 328.405 825.008 328.676 824.777 328.96 824.546 328.676 824.3 328.405 824.039 328.148 824.3 327.892 824.546 327.621 824.777 327.337Z"/><path d="M787 312.149C787.552 312.149 788 311.702 788 311.149L788 307.149C788 306.597 787.552 306.149 787 306.149 786.448 306.149 786 306.597 786 307.149L786 311.149C786 311.702 786.448 312.149 787 312.149Z"/><path d="M787 342.149C787.552 342.149 788 341.702 788 341.149L788 331.149C788 330.597 787.552 330.149 787 330.149 786.448 330.149 786 330.597 786 331.149L786 341.149C786 341.702 786.448 342.149 787 342.149Z"/><path d="M787 326.149C787.552 326.149 788 325.702 788 325.149L788 317.149C788 316.597 787.552 316.149 787 316.149 786.448 316.149 786 316.597 786 317.149L786 325.149C786 325.702 786.448 326.149 787 326.149Z"/><path d="M800.761 321.446C801.3 321.564 801.833 321.222 801.951 320.682 801.951 320.682 801.951 320.682 801.951 320.682L803.227 314.819C803.344 314.279 803.002 313.746 802.462 313.628 801.922 313.511 801.389 313.853 801.271 314.393L799.996 320.256C799.879 320.796 800.221 321.329 800.761 321.446Z"/><path d="M797.788 335.127C798.327 335.244 798.859 334.903 798.977 334.364 798.977 334.363 798.977 334.362 798.977 334.362L800.677 326.544C800.794 326.004 800.451 325.472 799.912 325.354 799.372 325.237 798.839 325.58 798.722 326.12L797.023 333.937C796.905 334.477 797.248 335.009 797.787 335.126 797.788 335.127 797.788 335.127 797.788 335.127Z"/><path d="M807.999 333.149C808.328 333.15 808.636 332.988 808.823 332.718L815.643 322.845C815.957 322.39 815.843 321.767 815.388 321.453 814.934 321.139 814.311 321.253 813.997 321.708L807.177 331.581C806.863 332.035 806.977 332.658 807.431 332.972 807.598 333.087 807.796 333.149 807.999 333.149Z"/><path d="M772.898 324.59 775.023 334.362C775.14 334.902 775.672 335.244 776.212 335.127 776.752 335.009 777.095 334.477 776.977 333.937L774.854 324.165C774.736 323.625 774.203 323.283 773.664 323.4 773.124 323.517 772.781 324.05 772.898 324.59Z"/><path d="M771.624 318.727C771.741 319.267 772.274 319.61 772.814 319.492 773.354 319.375 773.696 318.842 773.579 318.302L772.729 314.393C772.611 313.853 772.078 313.511 771.538 313.628 770.998 313.746 770.656 314.279 770.773 314.819Z"/><path d="M758.611 321.453C758.157 321.767 758.043 322.39 758.356 322.845L765.176 332.718C765.49 333.172 766.113 333.286 766.568 332.973 767.023 332.659 767.137 332.036 766.823 331.581L760.003 321.708C759.689 321.253 759.066 321.139 758.612 321.453 758.612 321.453 758.611 321.453 758.611 321.453Z"/></g></svg>