<svg width="731" height="731" xmlns="http://www.w3.org/2000/svg" xmlns:xlink="http://www.w3.org/1999/xlink" overflow="hidden">
  <defs>
    <clipPath id="clip0">
      <rect x="275" y="-6" width="731" height="731"/>
    </clipPath>
  </defs>
  <g clip-path="url(#clip0)" transform="translate(-275 6)">
    <path class="background" d="M280 0C297.734 2.1052 312.045-0.329344 337.6 0 363.155 0.329344 389.202-1.57554 402.4 0 415.598 1.57554 462.034 0.0522835 488.8 0 515.566-0.0522835 523.044 1.2401 539.2 0 555.356-1.2401 582.556 1.03213 611.2 0 639.844-1.03213 661.706 3.61869 697.6 0 733.494-3.61869 746.53 2.85207 769.6 0 792.67-2.85207 800.679-2.03066 827.2 0 853.721 2.03066 858.244 2.47024 877.6 0 896.956-2.47024 952.041 1.6884 1000 0 1002.81 33.247 1003.53 49.4193 1000 72 996.474 94.5807 1002.68 109.417 1000 129.6 997.318 149.783 997.428 167.878 1000 194.4 1002.57 220.922 998.102 234.088 1000 252 1001.9 269.912 997.295 292.193 1000 324 1002.71 355.807 999.026 370.316 1000 410.4 1000.97 450.484 997.853 451.421 1000 468 1002.15 484.579 1003.41 530.404 1000 547.2 996.595 563.996 1000.79 589.837 1000 619.2 999.209 648.563 1000.79 696.949 1000 720 968.939 719.286 952.477 720.453 935.2 720 917.923 719.547 869.505 722.616 848.8 720 828.095 717.384 798.364 721.958 776.8 720 755.236 718.041 740.272 719.281 712 720 683.728 720.719 657.102 722.146 632.8 720 608.498 717.854 576.806 719.677 553.6 720 530.394 720.323 521.09 720.395 496 720 470.91 719.605 448.917 723.323 416.8 720 384.683 716.677 330.099 720.953 280 720 279.845 702.152 277.148 689.362 280 662.4 282.852 635.438 280.238 616.069 280 576 279.762 535.931 280.195 525.662 280 511.2 279.805 496.738 281.571 471.234 280 460.8 278.429 450.366 277.962 418.031 280 381.6 282.038 345.169 276.153 319.68 280 302.4 283.847 285.12 280.039 269.212 280 244.8 279.961 220.388 280.289 214.767 280 187.2 279.711 159.633 277.281 118.606 280 100.8 282.719 82.9936 281.826 39.8704 280 0Z" stroke="#404040" stroke-width="6" stroke-linecap="round" stroke-linejoin="round" stroke-miterlimit="10" fill="none" fill-rule="evenodd"/>
    <path class="phone" d="M502 91.0009C499.216 64.1572 524.212 45.1906 548.001 45 562.5 45.4644 583.322 42.2728 605.654 45 627.985 47.7272 645.924 45.4023 666.986 45 688.048 44.5977 714.435 45.6804 731.999 45 759.608 42.8166 778.562 66.9855 778 91.0009 777.954 105.485 778.225 130.959 778 153.167 777.775 175.376 779.253 196.831 778 211.604 776.747 226.376 778.002 256.336 778 281.23 777.998 306.125 778.03 314.053 778 335.936 777.97 357.82 776.243 374.061 778 386.913 779.757 399.765 780.038 439.033 778 463.999 778.099 492.709 759.529 508.811 731.999 510 719.574 508.534 688.001 508.575 674.346 510 660.692 511.425 640.115 508.93 614.854 510 589.592 511.07 581.367 510.828 548.001 510 518.773 505.453 504.338 493.831 502 463.999 499.31 443.825 502.521 423.259 502 405.563 501.479 387.867 499.846 371.181 502 354.586 504.154 337.991 503.64 317.264 502 288.69 500.36 260.116 504.896 240.667 502 222.794 499.104 204.92 501.177 194.948 502 171.817 502.823 148.686 502.58 129.065 502 91.0009Z" stroke="#404040" stroke-width="6" stroke-linecap="round" stroke-linejoin="round" stroke-miterlimit="10" fill="none" fill-rule="evenodd"/>
    <text class="phone-name" fill="#5B9BD5" font-family="Calibri,Calibri_MSFontService,sans-serif" font-weight="400" font-size="53" transform="translate(553.513 295)">Android</text>
    <text class="phone-units" fill="#000000" font-weight="700" font-size="24" font-family="Calibri,Calibri_MSFontService,sans-serif" transform="translate(553.513 295)">
      <tspan x="-178.558" y="296">Hours / day</tspan>
    </text>
    <rect class="hours" x="502" y="550" width="76" height="67" stroke="#404040" stroke-width="6" stroke-miterlimit="8" fill="none"/>
    <text class="hours-text" font-family="Calibri,Calibri_MSFontService,sans-serif" font-weight="700" font-size="53" transform="translate(526.708 602)">1</text>
  </g>
</svg>
