<svg width="96" height="96" xmlns="http://www.w3.org/2000/svg" xmlns:xlink="http://www.w3.org/1999/xlink" overflow="hidden"><defs><clipPath id="clip0"><rect x="592" y="312" width="96" height="96"/></clipPath></defs><g clip-path="url(#clip0)" transform="translate(-592 -312)"><path d="M639.908 393.053C624.44 393.057 611.896 380.521 611.892 365.053 611.888 349.585 624.424 337.041 639.892 337.037 655.36 337.033 667.904 349.569 667.908 365.037 667.908 365.04 667.908 365.042 667.908 365.045 667.936 380.486 655.441 393.025 640 393.053 639.969 393.053 639.939 393.053 639.908 393.053ZM663.608 340.638 666.608 337.638C667.729 336.446 667.684 334.575 666.508 333.438 665.35 332.31 663.518 332.266 662.308 333.338L658.908 336.838C654.151 333.615 648.637 331.685 642.908 331.238L642.908 327.038 651.908 327.038 651.908 321.038 627.908 321.038 627.908 327.038 636.908 327.038 636.908 331.138C618.15 332.77 604.266 349.3 605.899 368.058 607.531 386.816 624.06 400.699 642.818 399.067 661.577 397.435 675.46 380.906 673.828 362.147 673.117 353.982 669.489 346.346 663.608 340.638Z"/><path d="M656.869 381.993C666.237 372.616 666.231 357.42 656.854 348.052 652.357 343.559 646.262 341.034 639.906 341.03L639.906 365.03Z"/></g></svg>